<svg version="1.0" xmlns="http://www.w3.org/2000/svg" width="20px" height="20px"
    viewBox="0 0 180.000000 180.000000" preserveAspectRatio="xMidYMid meet">

    <g transform="translate(0.000000,180.000000) scale(0.100000,-0.100000)" fill="currentColor" stroke="none">
        <path d="M812 1383 c-16 -14 -35 -80 -82 -283 -72 -312 -70 -304 -80 -294 -4
5 -22 65 -41 133 -35 130 -46 151 -83 151 -29 0 -37 -9 -105 -128 l-56 -97
-163 -5 c-130 -4 -165 -8 -172 -20 -15 -23 -12 -45 8 -63 16 -15 45 -17 191
-17 95 0 181 4 191 10 10 5 32 34 49 65 17 30 35 55 39 55 4 0 27 -75 51 -167
48 -185 60 -213 94 -213 47 0 54 17 112 270 70 305 66 290 75 290 4 0 31 -120
60 -266 30 -150 59 -272 67 -280 20 -19 57 -18 75 4 9 9 42 65 74 125 l59 107
268 0 c166 0 276 4 288 10 26 14 26 66 0 80 -23 12 -599 14 -617 2 -6 -4 -26
-33 -44 -64 -17 -32 -35 -58 -39 -58 -4 0 -38 145 -74 323 -67 319 -76 347
-113 347 -6 0 -21 -8 -32 -17z" />
    </g>
</svg>
